<?xml version="1.0" standalone="no"?>
<!DOCTYPE svg PUBLIC "-//W3C//DTD SVG 20010904//EN"
 "http://www.w3.org/TR/2001/REC-SVG-20010904/DTD/svg10.dtd">
<svg version="1.0" xmlns="http://www.w3.org/2000/svg"
 width="500.000000pt" height="500.000000pt" viewBox="0 0 500.000000 500.000000"
 preserveAspectRatio="xMidYMid meet">

<g transform="translate(0.000000,500.000000) scale(0.100000,-0.100000)"
fill="#000000" stroke="none">
<path d="M991 2918 c94 -277 237 -698 317 -936 l147 -432 245 2 245 3 3 357 2
358 298 2 297 3 0 170 0 170 -297 3 -298 2 0 225 0 225 325 0 325 0 0 170 0
170 -540 0 -540 0 -2 -395 -3 -395 -119 400 -119 400 -228 0 -228 0 170 -502z"/>
<path d="M2750 2050 l0 -500 580 0 580 0 0 500 0 500 -580 0 -580 0 0 -500z
m1080 5 l0 -425 -500 0 -500 0 0 425 0 425 500 0 500 0 0 -425z"/>
<path d="M3020 2285 l-24 -26 84 -84 85 -85 -85 -85 -85 -85 25 -25 25 -25
110 110 110 110 -111 110 -110 111 -24 -26z"/>
<path d="M3250 1900 l0 -40 155 0 155 0 0 40 0 40 -155 0 -155 0 0 -40z"/>
</g>
</svg>
